<svg xmlns="http://www.w3.org/2000/svg" width="200" height="200" viewBox="0 0 200 200"><g id="Drag_N_Drop" data-name="Drag N Drop"><polygon points="166.53 138.02 161.59 138.02 161.59 142.41 170.92 142.41 170.92 133.09 166.53 133.09 166.53 138.02" fill="#FFFFFF"/><rect x="139.95" y="138.02" width="10.61" height="4.39" fill="#FFFFFF"/><rect x="88.84" y="138.02" width="10.03" height="4.39" fill="#FFFFFF"/><polygon points="72.87 133.09 68.49 133.09 68.49 142.41 77.81 142.41 77.81 138.02 72.87 138.02 72.87 133.09" fill="#FFFFFF"/><polygon points="72.87 50.26 77.81 50.26 77.81 45.87 68.49 45.87 68.49 55.2 72.87 55.2 72.87 50.26" fill="#FFFFFF"/><rect x="113.09" y="45.87" width="13.22" height="4.39" fill="#FFFFFF"/><rect x="88.84" y="45.87" width="13.22" height="4.39" fill="#FFFFFF"/><rect x="137.34" y="45.87" width="13.22" height="4.39" fill="#FFFFFF"/><polygon points="161.59 45.87 161.59 50.26 166.53 50.26 166.53 55.2 170.92 55.2 170.92 45.87 161.59 45.87" fill="#FFFFFF"/><rect x="166.53" y="110.52" width="4.39" height="12.38" fill="#FFFFFF"/><rect x="166.53" y="87.95" width="4.39" height="12.38" fill="#FFFFFF"/><rect x="166.53" y="65.38" width="4.39" height="12.38" fill="#FFFFFF"/><path d="M89.39,123.13H37l28.3-25.62,20,14.35,22.82-24.79v20.25h4.39V63.69a2,2,0,0,0-2-2H31.08a2,2,0,0,0-2,2v61.82a2,2,0,0,0,2,2H89.39Zm18.67-57V80.59L84.65,106,65,91.87l-31.48,28.5V66.08Z" fill="#FFFFFF"/><path d="M50.72,93.52A12.07,12.07,0,1,0,38.65,81.45,12.08,12.08,0,0,0,50.72,93.52Zm0-19.75A7.68,7.68,0,1,1,43,81.45,7.69,7.69,0,0,1,50.72,73.77Z" fill="#FFFFFF"/><path d="M126,117l-33.64-9,9,33.64,6.25-6.25,18.46,18.78L138.5,141.7l-18.62-18.62Zm6.3,24.72-6.19,6.19-18.46-18.77-4,4-5.08-19,19,5.08-3.84,3.83Z" fill="#FFFFFF"/></g></svg>